<?xml version="1.0" encoding="UTF-8" standalone="no"?>
<!DOCTYPE svg PUBLIC "-//W3C//DTD SVG 1.1//EN"
 "http://www.w3.org/Graphics/SVG/1.1/DTD/svg11.dtd">
<!-- Generated by graphviz version 2.40.1 (20161225.0304)
 -->
<!-- Title: public.material Pages: 1 -->
<svg width="446pt" height="592pt"
 viewBox="0.00 0.00 445.50 592.00" xmlns="http://www.w3.org/2000/svg" xmlns:xlink="http://www.w3.org/1999/xlink">
<g id="graph0" class="graph" transform="scale(1 1) rotate(0) translate(4 588)">
<title>public.material</title>
<polygon fill="#ffffff" stroke="transparent" points="-4,4 -4,-588 441.5,-588 441.5,4 -4,4"/>
<!-- public.material -->
<g id="node1" class="node">
<title>public.material</title>
<polygon fill="#efefef" stroke="transparent" points="135,-105.5 135,-140.5 392,-140.5 392,-105.5 135,-105.5"/>
<polygon fill="none" stroke="#000000" points="135,-105.5 135,-140.5 392,-140.5 392,-105.5 135,-105.5"/>
<text text-anchor="start" x="141.7146" y="-118.3" font-family="Arial Bold" font-size="18.00" fill="#000000">public.material</text>
<text text-anchor="start" x="257.7174" y="-118.3" font-family="Arial" font-size="14.00" fill="#000000">    </text>
<text text-anchor="start" x="291.9222" y="-118.3" font-family="Arial" font-size="14.00" fill="#666666">[BASE TABLE]</text>
<polygon fill="none" stroke="#000000" points="135,-75.5 135,-105.5 392,-105.5 392,-75.5 135,-75.5"/>
<text text-anchor="start" x="142" y="-86.9" font-family="Arial" font-size="14.00" fill="#000000">id </text>
<text text-anchor="start" x="156.7798" y="-86.9" font-family="Arial" font-size="14.00" fill="#666666">[bigint]</text>
<polygon fill="none" stroke="#000000" points="135,-45.5 135,-75.5 392,-75.5 392,-45.5 135,-45.5"/>
<text text-anchor="start" x="142" y="-56.9" font-family="Arial" font-size="14.00" fill="#000000">name </text>
<text text-anchor="start" x="180.899" y="-56.9" font-family="Arial" font-size="14.00" fill="#666666">[text]</text>
<polygon fill="none" stroke="#000000" stroke-width="3" points="133,-44.5 133,-142.5 393,-142.5 393,-44.5 133,-44.5"/>
</g>
<!-- public.castle -->
<g id="node2" class="node">
<title>public.castle</title>
<polygon fill="#efefef" stroke="transparent" points="144,-505.5 144,-540.5 384,-540.5 384,-505.5 144,-505.5"/>
<polygon fill="none" stroke="#000000" points="144,-505.5 144,-540.5 384,-540.5 384,-505.5 144,-505.5"/>
<text text-anchor="start" x="150.707" y="-518.3" font-family="Arial Bold" font-size="18.00" fill="#000000">public.castle</text>
<text text-anchor="start" x="249.725" y="-518.3" font-family="Arial" font-size="14.00" fill="#000000">    </text>
<text text-anchor="start" x="283.9298" y="-518.3" font-family="Arial" font-size="14.00" fill="#666666">[BASE TABLE]</text>
<polygon fill="none" stroke="#000000" points="144,-475.5 144,-505.5 384,-505.5 384,-475.5 144,-475.5"/>
<text text-anchor="start" x="151" y="-486.9" font-family="Arial" font-size="14.00" fill="#000000">id    </text>
<text text-anchor="start" x="196.094" y="-486.9" font-family="Arial" font-size="14.00" fill="#666666">[bigint]</text>
<polygon fill="none" stroke="#000000" points="144,-445.5 144,-475.5 384,-475.5 384,-445.5 144,-445.5"/>
<text text-anchor="start" x="151" y="-456.9" font-family="Arial" font-size="14.00" fill="#000000">name    </text>
<text text-anchor="start" x="220.2132" y="-456.9" font-family="Arial" font-size="14.00" fill="#666666">[text]</text>
<polygon fill="none" stroke="#000000" points="144,-415.5 144,-445.5 384,-445.5 384,-415.5 144,-415.5"/>
<text text-anchor="start" x="151" y="-426.9" font-family="Arial" font-size="14.00" fill="#000000">description    </text>
<text text-anchor="start" x="252.8822" y="-426.9" font-family="Arial" font-size="14.00" fill="#666666">[text]</text>
<polygon fill="none" stroke="#000000" points="144,-385.5 144,-415.5 384,-415.5 384,-385.5 144,-385.5"/>
<text text-anchor="start" x="151" y="-396.9" font-family="Arial" font-size="14.00" fill="#000000">author_id    </text>
<text text-anchor="start" x="243.5582" y="-396.9" font-family="Arial" font-size="14.00" fill="#666666">[bigint]</text>
<polygon fill="none" stroke="#000000" points="144,-355.5 144,-385.5 384,-385.5 384,-355.5 144,-355.5"/>
<text text-anchor="start" x="151" y="-366.9" font-family="Arial" font-size="14.00" fill="#000000">built_year    </text>
<text text-anchor="start" x="245.8822" y="-366.9" font-family="Arial" font-size="14.00" fill="#666666">[integer]</text>
<polygon fill="none" stroke="#000000" points="144,-325.5 144,-355.5 384,-355.5 384,-325.5 144,-325.5"/>
<text text-anchor="start" x="151" y="-336.9" font-family="Arial" font-size="14.00" fill="#000000">destroyed_year    </text>
<text text-anchor="start" x="281.6774" y="-336.9" font-family="Arial" font-size="14.00" fill="#666666">[integer]</text>
<polygon fill="none" stroke="#000000" points="144,-295.5 144,-325.5 384,-325.5 384,-295.5 144,-295.5"/>
<text text-anchor="start" x="151" y="-306.9" font-family="Arial" font-size="14.00" fill="#000000">height_m    </text>
<text text-anchor="start" x="242.7756" y="-306.9" font-family="Arial" font-size="14.00" fill="#666666">[numeric]</text>
<polygon fill="none" stroke="#000000" points="144,-265.5 144,-295.5 384,-295.5 384,-265.5 144,-265.5"/>
<text text-anchor="start" x="151" y="-276.9" font-family="Arial" font-size="14.00" fill="#000000">material_id    </text>
<text text-anchor="start" x="253.6494" y="-276.9" font-family="Arial" font-size="14.00" fill="#666666">[bigint]</text>
</g>
<!-- public.castle&#45;&gt;public.material -->
<g id="edge1" class="edge">
<title>public.castle:material_id&#45;&gt;public.material:id</title>
<path fill="none" stroke="#000000" d="M264.8301,-255.5313C274.2468,-203.5341 361.1847,-242.0473 392,-187 412.9499,-149.576 434.8889,-90.5 392,-90.5"/>
<polygon fill="#000000" stroke="#000000" points="264.8299,-255.5345 259.5155,-265.1265 264.415,-260.5172 264,-265.5 264,-265.5 264,-265.5 264.415,-260.5172 268.4845,-265.8735 264.8299,-255.5345 264.8299,-255.5345"/>
<text text-anchor="start" x="6.7295" y="-275.5" font-family="Arial" font-size="10.00" fill="#000000">FOREIGN KEY (material_id) REFERENCES material(id)</text>
</g>
</g>
</svg>
