<?xml version="1.0" encoding="UTF-8" standalone="no"?>
<!DOCTYPE svg PUBLIC "-//W3C//DTD SVG 1.1//EN"
 "http://www.w3.org/Graphics/SVG/1.1/DTD/svg11.dtd">
<!-- Generated by graphviz version 2.40.1 (20161225.0304)
 -->
<!-- Title: public.author_type Pages: 1 -->
<svg width="497pt" height="472pt"
 viewBox="0.00 0.00 497.00 472.00" xmlns="http://www.w3.org/2000/svg" xmlns:xlink="http://www.w3.org/1999/xlink">
<g id="graph0" class="graph" transform="scale(1 1) rotate(0) translate(4 468)">
<title>public.author_type</title>
<polygon fill="#ffffff" stroke="transparent" points="-4,4 -4,-468 493,-468 493,4 -4,4"/>
<!-- public.author_type -->
<g id="node1" class="node">
<title>public.author_type</title>
<polygon fill="#efefef" stroke="transparent" points="155,-135.5 155,-170.5 443,-170.5 443,-135.5 155,-135.5"/>
<polygon fill="none" stroke="#000000" points="155,-135.5 155,-170.5 443,-170.5 443,-135.5 155,-135.5"/>
<text text-anchor="start" x="161.6914" y="-148.3" font-family="Arial Bold" font-size="18.00" fill="#000000">public.author_type</text>
<text text-anchor="start" x="308.7406" y="-148.3" font-family="Arial" font-size="14.00" fill="#000000">    </text>
<text text-anchor="start" x="342.9454" y="-148.3" font-family="Arial" font-size="14.00" fill="#666666">[BASE TABLE]</text>
<polygon fill="none" stroke="#000000" points="155,-105.5 155,-135.5 443,-135.5 443,-105.5 155,-105.5"/>
<text text-anchor="start" x="162" y="-116.9" font-family="Arial" font-size="14.00" fill="#000000">id </text>
<text text-anchor="start" x="176.7798" y="-116.9" font-family="Arial" font-size="14.00" fill="#666666">[bigint]</text>
<polygon fill="none" stroke="#000000" points="155,-75.5 155,-105.5 443,-105.5 443,-75.5 155,-75.5"/>
<text text-anchor="start" x="162" y="-86.9" font-family="Arial" font-size="14.00" fill="#000000">name </text>
<text text-anchor="start" x="200.899" y="-86.9" font-family="Arial" font-size="14.00" fill="#666666">[text]</text>
<polygon fill="none" stroke="#000000" points="155,-45.5 155,-75.5 443,-75.5 443,-45.5 155,-45.5"/>
<text text-anchor="start" x="162" y="-56.9" font-family="Arial" font-size="14.00" fill="#000000">description </text>
<text text-anchor="start" x="233.568" y="-56.9" font-family="Arial" font-size="14.00" fill="#666666">[text]</text>
<polygon fill="none" stroke="#000000" stroke-width="3" points="153.5,-44.5 153.5,-172.5 444.5,-172.5 444.5,-44.5 153.5,-44.5"/>
</g>
<!-- public.author -->
<g id="node2" class="node">
<title>public.author</title>
<polygon fill="#efefef" stroke="transparent" points="177,-385.5 177,-420.5 421,-420.5 421,-385.5 177,-385.5"/>
<polygon fill="none" stroke="#000000" points="177,-385.5 177,-420.5 421,-420.5 421,-385.5 177,-385.5"/>
<text text-anchor="start" x="183.7018" y="-398.3" font-family="Arial Bold" font-size="18.00" fill="#000000">public.author</text>
<text text-anchor="start" x="286.7302" y="-398.3" font-family="Arial" font-size="14.00" fill="#000000">    </text>
<text text-anchor="start" x="320.935" y="-398.3" font-family="Arial" font-size="14.00" fill="#666666">[BASE TABLE]</text>
<polygon fill="none" stroke="#000000" points="177,-355.5 177,-385.5 421,-385.5 421,-355.5 177,-355.5"/>
<text text-anchor="start" x="184" y="-366.9" font-family="Arial" font-size="14.00" fill="#000000">id    </text>
<text text-anchor="start" x="229.094" y="-366.9" font-family="Arial" font-size="14.00" fill="#666666">[bigint]</text>
<polygon fill="none" stroke="#000000" points="177,-325.5 177,-355.5 421,-355.5 421,-325.5 177,-325.5"/>
<text text-anchor="start" x="184" y="-336.9" font-family="Arial" font-size="14.00" fill="#000000">name    </text>
<text text-anchor="start" x="253.2132" y="-336.9" font-family="Arial" font-size="14.00" fill="#666666">[text]</text>
<polygon fill="none" stroke="#000000" points="177,-295.5 177,-325.5 421,-325.5 421,-295.5 177,-295.5"/>
<text text-anchor="start" x="184" y="-306.9" font-family="Arial" font-size="14.00" fill="#000000">author_type_id    </text>
<text text-anchor="start" x="310.7966" y="-306.9" font-family="Arial" font-size="14.00" fill="#666666">[bigint]</text>
</g>
<!-- public.author&#45;&gt;public.author_type -->
<g id="edge1" class="edge">
<title>public.author:author_type_id&#45;&gt;public.author_type:id</title>
<path fill="none" stroke="#000000" d="M299.803,-285.3681C309.6658,-228.0952 407.6735,-276.4924 443,-217 464.8977,-180.1226 485.8889,-120.5 443,-120.5"/>
<polygon fill="#000000" stroke="#000000" points="299.7902,-285.5313 294.5141,-295.1444 299.3951,-290.5156 299,-295.5 299,-295.5 299,-295.5 299.3951,-290.5156 303.4859,-295.8556 299.7902,-285.5313 299.7902,-285.5313"/>
<text text-anchor="start" x="7.4815" y="-305.5" font-family="Arial" font-size="10.00" fill="#000000">FOREIGN KEY (author_type_id) REFERENCES author_type(id)</text>
</g>
</g>
</svg>
