<?xml version="1.0" encoding="UTF-8" standalone="no"?>
<!DOCTYPE svg PUBLIC "-//W3C//DTD SVG 1.1//EN"
 "http://www.w3.org/Graphics/SVG/1.1/DTD/svg11.dtd">
<!-- Generated by graphviz version 2.40.1 (20161225.0304)
 -->
<!-- Title: public.author Pages: 1 -->
<svg width="744pt" height="869pt"
 viewBox="0.00 0.00 744.00 869.00" xmlns="http://www.w3.org/2000/svg" xmlns:xlink="http://www.w3.org/1999/xlink">
<g id="graph0" class="graph" transform="scale(1 1) rotate(0) translate(4 865)">
<title>public.author</title>
<polygon fill="#ffffff" stroke="transparent" points="-4,4 -4,-865 740,-865 740,4 -4,4"/>
<!-- public.author -->
<g id="node1" class="node">
<title>public.author</title>
<polygon fill="#efefef" stroke="transparent" points="229,-382.5 229,-417.5 473,-417.5 473,-382.5 229,-382.5"/>
<polygon fill="none" stroke="#000000" points="229,-382.5 229,-417.5 473,-417.5 473,-382.5 229,-382.5"/>
<text text-anchor="start" x="235.7018" y="-395.3" font-family="Arial Bold" font-size="18.00" fill="#000000">public.author</text>
<text text-anchor="start" x="338.7302" y="-395.3" font-family="Arial" font-size="14.00" fill="#000000">    </text>
<text text-anchor="start" x="372.935" y="-395.3" font-family="Arial" font-size="14.00" fill="#666666">[BASE TABLE]</text>
<polygon fill="none" stroke="#000000" points="229,-352.5 229,-382.5 473,-382.5 473,-352.5 229,-352.5"/>
<text text-anchor="start" x="236" y="-363.9" font-family="Arial" font-size="14.00" fill="#000000">id </text>
<text text-anchor="start" x="250.7798" y="-363.9" font-family="Arial" font-size="14.00" fill="#666666">[bigint]</text>
<polygon fill="none" stroke="#000000" points="229,-322.5 229,-352.5 473,-352.5 473,-322.5 229,-322.5"/>
<text text-anchor="start" x="236" y="-333.9" font-family="Arial" font-size="14.00" fill="#000000">name </text>
<text text-anchor="start" x="274.899" y="-333.9" font-family="Arial" font-size="14.00" fill="#666666">[text]</text>
<polygon fill="none" stroke="#000000" points="229,-292.5 229,-322.5 473,-322.5 473,-292.5 229,-292.5"/>
<text text-anchor="start" x="236" y="-303.9" font-family="Arial" font-size="14.00" fill="#000000">author_type_id </text>
<text text-anchor="start" x="332.4824" y="-303.9" font-family="Arial" font-size="14.00" fill="#666666">[bigint]</text>
<polygon fill="none" stroke="#000000" stroke-width="3" points="227.5,-291.5 227.5,-419.5 474.5,-419.5 474.5,-291.5 227.5,-291.5"/>
</g>
<!-- public.author_type -->
<g id="node4" class="node">
<title>public.author_type</title>
<polygon fill="#efefef" stroke="transparent" points="207,-132.5 207,-167.5 495,-167.5 495,-132.5 207,-132.5"/>
<polygon fill="none" stroke="#000000" points="207,-132.5 207,-167.5 495,-167.5 495,-132.5 207,-132.5"/>
<text text-anchor="start" x="213.6914" y="-145.3" font-family="Arial Bold" font-size="18.00" fill="#000000">public.author_type</text>
<text text-anchor="start" x="360.7406" y="-145.3" font-family="Arial" font-size="14.00" fill="#000000">    </text>
<text text-anchor="start" x="394.9454" y="-145.3" font-family="Arial" font-size="14.00" fill="#666666">[BASE TABLE]</text>
<polygon fill="none" stroke="#000000" points="207,-102.5 207,-132.5 495,-132.5 495,-102.5 207,-102.5"/>
<text text-anchor="start" x="214" y="-113.9" font-family="Arial" font-size="14.00" fill="#000000">id    </text>
<text text-anchor="start" x="259.094" y="-113.9" font-family="Arial" font-size="14.00" fill="#666666">[bigint]</text>
<polygon fill="none" stroke="#000000" points="207,-72.5 207,-102.5 495,-102.5 495,-72.5 207,-72.5"/>
<text text-anchor="start" x="214" y="-83.9" font-family="Arial" font-size="14.00" fill="#000000">name    </text>
<text text-anchor="start" x="283.2132" y="-83.9" font-family="Arial" font-size="14.00" fill="#666666">[text]</text>
<polygon fill="none" stroke="#000000" points="207,-42.5 207,-72.5 495,-72.5 495,-42.5 207,-42.5"/>
<text text-anchor="start" x="214" y="-53.9" font-family="Arial" font-size="14.00" fill="#000000">description    </text>
<text text-anchor="start" x="315.8822" y="-53.9" font-family="Arial" font-size="14.00" fill="#666666">[text]</text>
</g>
<!-- public.author&#45;&gt;public.author_type -->
<g id="edge3" class="edge">
<title>public.author:author_type_id&#45;&gt;public.author_type:id</title>
<path fill="none" stroke="#000000" d="M351.8043,-282.263C361.6826,-224.2971 459.8386,-271.3027 495,-211 515.9319,-175.1013 536.5556,-117.5 495,-117.5"/>
<polygon fill="#000000" stroke="#000000" points="351.7833,-282.5307 346.5138,-292.1475 351.3917,-287.5154 351,-292.5 351,-292.5 351,-292.5 351.3917,-287.5154 355.4862,-292.8525 351.7833,-282.5307 351.7833,-282.5307"/>
<text text-anchor="start" x="59.4815" y="-302.5" font-family="Arial" font-size="10.00" fill="#000000">FOREIGN KEY (author_type_id) REFERENCES author_type(id)</text>
</g>
<!-- public.castle -->
<g id="node2" class="node">
<title>public.castle</title>
<polygon fill="#efefef" stroke="transparent" points="43,-782.5 43,-817.5 283,-817.5 283,-782.5 43,-782.5"/>
<polygon fill="none" stroke="#000000" points="43,-782.5 43,-817.5 283,-817.5 283,-782.5 43,-782.5"/>
<text text-anchor="start" x="49.707" y="-795.3" font-family="Arial Bold" font-size="18.00" fill="#000000">public.castle</text>
<text text-anchor="start" x="148.725" y="-795.3" font-family="Arial" font-size="14.00" fill="#000000">    </text>
<text text-anchor="start" x="182.9298" y="-795.3" font-family="Arial" font-size="14.00" fill="#666666">[BASE TABLE]</text>
<polygon fill="none" stroke="#000000" points="43,-752.5 43,-782.5 283,-782.5 283,-752.5 43,-752.5"/>
<text text-anchor="start" x="50" y="-763.9" font-family="Arial" font-size="14.00" fill="#000000">id    </text>
<text text-anchor="start" x="95.094" y="-763.9" font-family="Arial" font-size="14.00" fill="#666666">[bigint]</text>
<polygon fill="none" stroke="#000000" points="43,-722.5 43,-752.5 283,-752.5 283,-722.5 43,-722.5"/>
<text text-anchor="start" x="50" y="-733.9" font-family="Arial" font-size="14.00" fill="#000000">name    </text>
<text text-anchor="start" x="119.2132" y="-733.9" font-family="Arial" font-size="14.00" fill="#666666">[text]</text>
<polygon fill="none" stroke="#000000" points="43,-692.5 43,-722.5 283,-722.5 283,-692.5 43,-692.5"/>
<text text-anchor="start" x="50" y="-703.9" font-family="Arial" font-size="14.00" fill="#000000">description    </text>
<text text-anchor="start" x="151.8822" y="-703.9" font-family="Arial" font-size="14.00" fill="#666666">[text]</text>
<polygon fill="none" stroke="#000000" points="43,-662.5 43,-692.5 283,-692.5 283,-662.5 43,-662.5"/>
<text text-anchor="start" x="50" y="-673.9" font-family="Arial" font-size="14.00" fill="#000000">author_id    </text>
<text text-anchor="start" x="142.5582" y="-673.9" font-family="Arial" font-size="14.00" fill="#666666">[bigint]</text>
<polygon fill="none" stroke="#000000" points="43,-632.5 43,-662.5 283,-662.5 283,-632.5 43,-632.5"/>
<text text-anchor="start" x="50" y="-643.9" font-family="Arial" font-size="14.00" fill="#000000">built_year    </text>
<text text-anchor="start" x="144.8822" y="-643.9" font-family="Arial" font-size="14.00" fill="#666666">[integer]</text>
<polygon fill="none" stroke="#000000" points="43,-602.5 43,-632.5 283,-632.5 283,-602.5 43,-602.5"/>
<text text-anchor="start" x="50" y="-613.9" font-family="Arial" font-size="14.00" fill="#000000">destroyed_year    </text>
<text text-anchor="start" x="180.6774" y="-613.9" font-family="Arial" font-size="14.00" fill="#666666">[integer]</text>
<polygon fill="none" stroke="#000000" points="43,-572.5 43,-602.5 283,-602.5 283,-572.5 43,-572.5"/>
<text text-anchor="start" x="50" y="-583.9" font-family="Arial" font-size="14.00" fill="#000000">height_m    </text>
<text text-anchor="start" x="141.7756" y="-583.9" font-family="Arial" font-size="14.00" fill="#666666">[numeric]</text>
<polygon fill="none" stroke="#000000" points="43,-542.5 43,-572.5 283,-572.5 283,-542.5 43,-542.5"/>
<text text-anchor="start" x="50" y="-553.9" font-family="Arial" font-size="14.00" fill="#000000">material_id    </text>
<text text-anchor="start" x="152.6494" y="-553.9" font-family="Arial" font-size="14.00" fill="#666666">[bigint]</text>
</g>
<!-- public.castle&#45;&gt;public.author -->
<g id="edge1" class="edge">
<title>public.castle:author_id&#45;&gt;public.author:id</title>
<path fill="none" stroke="#000000" d="M293.312,-676.8035C357.9926,-667.4644 318.4795,-566.294 283,-500 269.3895,-474.5686 242.6105,-489.4314 229,-464 208.7625,-426.186 186.1111,-367.5 229,-367.5"/>
<polygon fill="#000000" stroke="#000000" points="292.9773,-676.826 282.6967,-673.0102 287.9886,-677.163 283,-677.5 283,-677.5 283,-677.5 287.9886,-677.163 283.3033,-681.9898 292.9773,-676.826 292.9773,-676.826"/>
<text text-anchor="start" x="289.9375" y="-687.5" font-family="Arial" font-size="10.00" fill="#000000">FOREIGN KEY (author_id) REFERENCES author(id)</text>
</g>
<!-- public.reconstruction -->
<g id="node3" class="node">
<title>public.reconstruction</title>
<polygon fill="#efefef" stroke="transparent" points="387,-722.5 387,-757.5 693,-757.5 693,-722.5 387,-722.5"/>
<polygon fill="none" stroke="#000000" points="387,-722.5 387,-757.5 693,-757.5 693,-722.5 387,-722.5"/>
<text text-anchor="start" x="393.7013" y="-735.3" font-family="Arial Bold" font-size="18.00" fill="#000000">public.reconstruction</text>
<text text-anchor="start" x="558.7307" y="-735.3" font-family="Arial" font-size="14.00" fill="#000000">    </text>
<text text-anchor="start" x="592.9355" y="-735.3" font-family="Arial" font-size="14.00" fill="#666666">[BASE TABLE]</text>
<polygon fill="none" stroke="#000000" points="387,-692.5 387,-722.5 693,-722.5 693,-692.5 387,-692.5"/>
<text text-anchor="start" x="394" y="-703.9" font-family="Arial" font-size="14.00" fill="#000000">id    </text>
<text text-anchor="start" x="439.094" y="-703.9" font-family="Arial" font-size="14.00" fill="#666666">[bigint]</text>
<polygon fill="none" stroke="#000000" points="387,-662.5 387,-692.5 693,-692.5 693,-662.5 387,-662.5"/>
<text text-anchor="start" x="394" y="-673.9" font-family="Arial" font-size="14.00" fill="#000000">castle_id    </text>
<text text-anchor="start" x="483.439" y="-673.9" font-family="Arial" font-size="14.00" fill="#666666">[bigint]</text>
<polygon fill="none" stroke="#000000" points="387,-632.5 387,-662.5 693,-662.5 693,-632.5 387,-632.5"/>
<text text-anchor="start" x="394" y="-643.9" font-family="Arial" font-size="14.00" fill="#000000">author_id    </text>
<text text-anchor="start" x="486.5582" y="-643.9" font-family="Arial" font-size="14.00" fill="#666666">[bigint]</text>
<polygon fill="none" stroke="#000000" points="387,-602.5 387,-632.5 693,-632.5 693,-602.5 387,-602.5"/>
<text text-anchor="start" x="394" y="-613.9" font-family="Arial" font-size="14.00" fill="#000000">reconstruction_year    </text>
<text text-anchor="start" x="551.1178" y="-613.9" font-family="Arial" font-size="14.00" fill="#666666">[integer]</text>
</g>
<!-- public.reconstruction&#45;&gt;public.author -->
<g id="edge2" class="edge">
<title>public.reconstruction:author_id&#45;&gt;public.author:id</title>
<path fill="none" stroke="#000000" d="M377.0495,-645.9855C353.0743,-637.258 374.5202,-592.6344 387,-560 407.4609,-506.4955 452.5391,-517.5045 473,-464 488.3193,-423.9404 515.8889,-367.5 473,-367.5"/>
<polygon fill="#000000" stroke="#000000" points="377.1138,-645.9952 386.3229,-651.9488 382.0569,-646.7476 387,-647.5 387,-647.5 387,-647.5 382.0569,-646.7476 387.6771,-643.0512 377.1138,-645.9952 377.1138,-645.9952"/>
<text text-anchor="start" x="393.9375" y="-657.5" font-family="Arial" font-size="10.00" fill="#000000">FOREIGN KEY (author_id) REFERENCES author(id)</text>
</g>
</g>
</svg>
