<?xml version="1.0" encoding="UTF-8" standalone="no"?>
<!DOCTYPE svg PUBLIC "-//W3C//DTD SVG 1.1//EN"
 "http://www.w3.org/Graphics/SVG/1.1/DTD/svg11.dtd">
<!-- Generated by graphviz version 2.40.1 (20161225.0304)
 -->
<!-- Title: public.castle Pages: 1 -->
<svg width="776pt" height="899pt"
 viewBox="0.00 0.00 776.00 899.00" xmlns="http://www.w3.org/2000/svg" xmlns:xlink="http://www.w3.org/1999/xlink">
<g id="graph0" class="graph" transform="scale(1 1) rotate(0) translate(4 895)">
<title>public.castle</title>
<polygon fill="#ffffff" stroke="transparent" points="-4,4 -4,-895 772,-895 772,4 -4,4"/>
<!-- public.castle -->
<g id="node1" class="node">
<title>public.castle</title>
<polygon fill="#efefef" stroke="transparent" points="250,-532.5 250,-567.5 490,-567.5 490,-532.5 250,-532.5"/>
<polygon fill="none" stroke="#000000" points="250,-532.5 250,-567.5 490,-567.5 490,-532.5 250,-532.5"/>
<text text-anchor="start" x="256.707" y="-545.3" font-family="Arial Bold" font-size="18.00" fill="#000000">public.castle</text>
<text text-anchor="start" x="355.725" y="-545.3" font-family="Arial" font-size="14.00" fill="#000000">    </text>
<text text-anchor="start" x="389.9298" y="-545.3" font-family="Arial" font-size="14.00" fill="#666666">[BASE TABLE]</text>
<polygon fill="none" stroke="#000000" points="250,-502.5 250,-532.5 490,-532.5 490,-502.5 250,-502.5"/>
<text text-anchor="start" x="257" y="-513.9" font-family="Arial" font-size="14.00" fill="#000000">id </text>
<text text-anchor="start" x="271.7798" y="-513.9" font-family="Arial" font-size="14.00" fill="#666666">[bigint]</text>
<polygon fill="none" stroke="#000000" points="250,-472.5 250,-502.5 490,-502.5 490,-472.5 250,-472.5"/>
<text text-anchor="start" x="257" y="-483.9" font-family="Arial" font-size="14.00" fill="#000000">name </text>
<text text-anchor="start" x="295.899" y="-483.9" font-family="Arial" font-size="14.00" fill="#666666">[text]</text>
<polygon fill="none" stroke="#000000" points="250,-442.5 250,-472.5 490,-472.5 490,-442.5 250,-442.5"/>
<text text-anchor="start" x="257" y="-453.9" font-family="Arial" font-size="14.00" fill="#000000">description </text>
<text text-anchor="start" x="328.568" y="-453.9" font-family="Arial" font-size="14.00" fill="#666666">[text]</text>
<polygon fill="none" stroke="#000000" points="250,-412.5 250,-442.5 490,-442.5 490,-412.5 250,-412.5"/>
<text text-anchor="start" x="257" y="-423.9" font-family="Arial" font-size="14.00" fill="#000000">author_id </text>
<text text-anchor="start" x="319.244" y="-423.9" font-family="Arial" font-size="14.00" fill="#666666">[bigint]</text>
<polygon fill="none" stroke="#000000" points="250,-382.5 250,-412.5 490,-412.5 490,-382.5 250,-382.5"/>
<text text-anchor="start" x="257" y="-393.9" font-family="Arial" font-size="14.00" fill="#000000">built_year </text>
<text text-anchor="start" x="321.568" y="-393.9" font-family="Arial" font-size="14.00" fill="#666666">[integer]</text>
<polygon fill="none" stroke="#000000" points="250,-352.5 250,-382.5 490,-382.5 490,-352.5 250,-352.5"/>
<text text-anchor="start" x="257" y="-363.9" font-family="Arial" font-size="14.00" fill="#000000">destroyed_year </text>
<text text-anchor="start" x="357.3632" y="-363.9" font-family="Arial" font-size="14.00" fill="#666666">[integer]</text>
<polygon fill="none" stroke="#000000" points="250,-322.5 250,-352.5 490,-352.5 490,-322.5 250,-322.5"/>
<text text-anchor="start" x="257" y="-333.9" font-family="Arial" font-size="14.00" fill="#000000">height_m </text>
<text text-anchor="start" x="318.4614" y="-333.9" font-family="Arial" font-size="14.00" fill="#666666">[numeric]</text>
<polygon fill="none" stroke="#000000" points="250,-292.5 250,-322.5 490,-322.5 490,-292.5 250,-292.5"/>
<text text-anchor="start" x="257" y="-303.9" font-family="Arial" font-size="14.00" fill="#000000">material_id </text>
<text text-anchor="start" x="329.3352" y="-303.9" font-family="Arial" font-size="14.00" fill="#666666">[bigint]</text>
<polygon fill="none" stroke="#000000" stroke-width="3" points="248.5,-291.5 248.5,-569.5 491.5,-569.5 491.5,-291.5 248.5,-291.5"/>
</g>
<!-- public.author -->
<g id="node3" class="node">
<title>public.author</title>
<polygon fill="#efefef" stroke="transparent" points="70,-132.5 70,-167.5 314,-167.5 314,-132.5 70,-132.5"/>
<polygon fill="none" stroke="#000000" points="70,-132.5 70,-167.5 314,-167.5 314,-132.5 70,-132.5"/>
<text text-anchor="start" x="76.7018" y="-145.3" font-family="Arial Bold" font-size="18.00" fill="#000000">public.author</text>
<text text-anchor="start" x="179.7302" y="-145.3" font-family="Arial" font-size="14.00" fill="#000000">    </text>
<text text-anchor="start" x="213.935" y="-145.3" font-family="Arial" font-size="14.00" fill="#666666">[BASE TABLE]</text>
<polygon fill="none" stroke="#000000" points="70,-102.5 70,-132.5 314,-132.5 314,-102.5 70,-102.5"/>
<text text-anchor="start" x="77" y="-113.9" font-family="Arial" font-size="14.00" fill="#000000">id    </text>
<text text-anchor="start" x="122.094" y="-113.9" font-family="Arial" font-size="14.00" fill="#666666">[bigint]</text>
<polygon fill="none" stroke="#000000" points="70,-72.5 70,-102.5 314,-102.5 314,-72.5 70,-72.5"/>
<text text-anchor="start" x="77" y="-83.9" font-family="Arial" font-size="14.00" fill="#000000">name    </text>
<text text-anchor="start" x="146.2132" y="-83.9" font-family="Arial" font-size="14.00" fill="#666666">[text]</text>
<polygon fill="none" stroke="#000000" points="70,-42.5 70,-72.5 314,-72.5 314,-42.5 70,-42.5"/>
<text text-anchor="start" x="77" y="-53.9" font-family="Arial" font-size="14.00" fill="#000000">author_type_id    </text>
<text text-anchor="start" x="203.7966" y="-53.9" font-family="Arial" font-size="14.00" fill="#666666">[bigint]</text>
</g>
<!-- public.castle&#45;&gt;public.author -->
<g id="edge2" class="edge">
<title>public.castle:author_id&#45;&gt;public.author:id</title>
<path fill="none" stroke="#000000" d="M239.9041,-426.8404C173.3482,-417.5895 211.3195,-313.1378 250,-247 266.476,-218.8286 297.524,-239.1714 314,-211 334.9792,-175.1289 355.5556,-117.5 314,-117.5"/>
<polygon fill="#000000" stroke="#000000" points="240.0213,-426.8479 249.7066,-431.9904 245.0106,-427.174 250,-427.5 250,-427.5 250,-427.5 245.0106,-427.174 250.2934,-423.0096 240.0213,-426.8479 240.0213,-426.8479"/>
<text text-anchor="start" x="6.9375" y="-437.5" font-family="Arial" font-size="10.00" fill="#000000">FOREIGN KEY (author_id) REFERENCES author(id)</text>
</g>
<!-- public.material -->
<g id="node4" class="node">
<title>public.material</title>
<polygon fill="#efefef" stroke="transparent" points="419,-117.5 419,-152.5 676,-152.5 676,-117.5 419,-117.5"/>
<polygon fill="none" stroke="#000000" points="419,-117.5 419,-152.5 676,-152.5 676,-117.5 419,-117.5"/>
<text text-anchor="start" x="425.7146" y="-130.3" font-family="Arial Bold" font-size="18.00" fill="#000000">public.material</text>
<text text-anchor="start" x="541.7174" y="-130.3" font-family="Arial" font-size="14.00" fill="#000000">    </text>
<text text-anchor="start" x="575.9222" y="-130.3" font-family="Arial" font-size="14.00" fill="#666666">[BASE TABLE]</text>
<polygon fill="none" stroke="#000000" points="419,-87.5 419,-117.5 676,-117.5 676,-87.5 419,-87.5"/>
<text text-anchor="start" x="426" y="-98.9" font-family="Arial" font-size="14.00" fill="#000000">id    </text>
<text text-anchor="start" x="471.094" y="-98.9" font-family="Arial" font-size="14.00" fill="#666666">[bigint]</text>
<polygon fill="none" stroke="#000000" points="419,-57.5 419,-87.5 676,-87.5 676,-57.5 419,-57.5"/>
<text text-anchor="start" x="426" y="-68.9" font-family="Arial" font-size="14.00" fill="#000000">name    </text>
<text text-anchor="start" x="495.2132" y="-68.9" font-family="Arial" font-size="14.00" fill="#666666">[text]</text>
</g>
<!-- public.castle&#45;&gt;public.material -->
<g id="edge3" class="edge">
<title>public.castle:material_id&#45;&gt;public.material:id</title>
<path fill="none" stroke="#000000" d="M499.7315,-305.0089C512.3784,-296.3792 500.3545,-267.1868 490,-247 472.2677,-212.4298 436.7323,-230.5702 419,-196 400.0341,-159.0249 377.4444,-102.5 419,-102.5"/>
<polygon fill="#000000" stroke="#000000" points="499.6876,-305.0201 488.884,-303.1406 494.8438,-306.26 490,-307.5 490,-307.5 490,-307.5 494.8438,-306.26 491.116,-311.8594 499.6876,-305.0201 499.6876,-305.0201"/>
<text text-anchor="start" x="496.7295" y="-317.5" font-family="Arial" font-size="10.00" fill="#000000">FOREIGN KEY (material_id) REFERENCES material(id)</text>
</g>
<!-- public.reconstruction -->
<g id="node2" class="node">
<title>public.reconstruction</title>
<polygon fill="#efefef" stroke="transparent" points="217,-812.5 217,-847.5 523,-847.5 523,-812.5 217,-812.5"/>
<polygon fill="none" stroke="#000000" points="217,-812.5 217,-847.5 523,-847.5 523,-812.5 217,-812.5"/>
<text text-anchor="start" x="223.7013" y="-825.3" font-family="Arial Bold" font-size="18.00" fill="#000000">public.reconstruction</text>
<text text-anchor="start" x="388.7307" y="-825.3" font-family="Arial" font-size="14.00" fill="#000000">    </text>
<text text-anchor="start" x="422.9355" y="-825.3" font-family="Arial" font-size="14.00" fill="#666666">[BASE TABLE]</text>
<polygon fill="none" stroke="#000000" points="217,-782.5 217,-812.5 523,-812.5 523,-782.5 217,-782.5"/>
<text text-anchor="start" x="224" y="-793.9" font-family="Arial" font-size="14.00" fill="#000000">id    </text>
<text text-anchor="start" x="269.094" y="-793.9" font-family="Arial" font-size="14.00" fill="#666666">[bigint]</text>
<polygon fill="none" stroke="#000000" points="217,-752.5 217,-782.5 523,-782.5 523,-752.5 217,-752.5"/>
<text text-anchor="start" x="224" y="-763.9" font-family="Arial" font-size="14.00" fill="#000000">castle_id    </text>
<text text-anchor="start" x="313.439" y="-763.9" font-family="Arial" font-size="14.00" fill="#666666">[bigint]</text>
<polygon fill="none" stroke="#000000" points="217,-722.5 217,-752.5 523,-752.5 523,-722.5 217,-722.5"/>
<text text-anchor="start" x="224" y="-733.9" font-family="Arial" font-size="14.00" fill="#000000">author_id    </text>
<text text-anchor="start" x="316.5582" y="-733.9" font-family="Arial" font-size="14.00" fill="#666666">[bigint]</text>
<polygon fill="none" stroke="#000000" points="217,-692.5 217,-722.5 523,-722.5 523,-692.5 217,-692.5"/>
<text text-anchor="start" x="224" y="-703.9" font-family="Arial" font-size="14.00" fill="#000000">reconstruction_year    </text>
<text text-anchor="start" x="381.1178" y="-703.9" font-family="Arial" font-size="14.00" fill="#666666">[integer]</text>
</g>
<!-- public.reconstruction&#45;&gt;public.castle -->
<g id="edge1" class="edge">
<title>public.reconstruction:castle_id&#45;&gt;public.castle:id</title>
<path fill="none" stroke="#000000" d="M533.084,-766.7828C632.9352,-752.1191 598.5726,-517.5 490,-517.5"/>
<polygon fill="#000000" stroke="#000000" points="532.9748,-766.7905 522.6807,-763.0113 527.9874,-767.1453 523,-767.5 523,-767.5 523,-767.5 527.9874,-767.1453 523.3193,-771.9887 532.9748,-766.7905 532.9748,-766.7905"/>
<text text-anchor="start" x="530.1655" y="-777.5" font-family="Arial" font-size="10.00" fill="#000000">FOREIGN KEY (castle_id) REFERENCES castle(id)</text>
</g>
</g>
</svg>
