<?xml version="1.0" encoding="UTF-8" standalone="no"?>
<!DOCTYPE svg PUBLIC "-//W3C//DTD SVG 1.1//EN"
 "http://www.w3.org/Graphics/SVG/1.1/DTD/svg11.dtd">
<!-- Generated by graphviz version 2.40.1 (20161225.0304)
 -->
<!-- Title: public.reconstruction Pages: 1 -->
<svg width="809pt" height="652pt"
 viewBox="0.00 0.00 809.00 652.00" xmlns="http://www.w3.org/2000/svg" xmlns:xlink="http://www.w3.org/1999/xlink">
<g id="graph0" class="graph" transform="scale(1 1) rotate(0) translate(4 648)">
<title>public.reconstruction</title>
<polygon fill="#ffffff" stroke="transparent" points="-4,4 -4,-648 805,-648 805,4 -4,4"/>
<!-- public.reconstruction -->
<g id="node1" class="node">
<title>public.reconstruction</title>
<polygon fill="#efefef" stroke="transparent" points="245,-562.5 245,-597.5 551,-597.5 551,-562.5 245,-562.5"/>
<polygon fill="none" stroke="#000000" points="245,-562.5 245,-597.5 551,-597.5 551,-562.5 245,-562.5"/>
<text text-anchor="start" x="251.7013" y="-575.3" font-family="Arial Bold" font-size="18.00" fill="#000000">public.reconstruction</text>
<text text-anchor="start" x="416.7307" y="-575.3" font-family="Arial" font-size="14.00" fill="#000000">    </text>
<text text-anchor="start" x="450.9355" y="-575.3" font-family="Arial" font-size="14.00" fill="#666666">[BASE TABLE]</text>
<polygon fill="none" stroke="#000000" points="245,-532.5 245,-562.5 551,-562.5 551,-532.5 245,-532.5"/>
<text text-anchor="start" x="252" y="-543.9" font-family="Arial" font-size="14.00" fill="#000000">id </text>
<text text-anchor="start" x="266.7798" y="-543.9" font-family="Arial" font-size="14.00" fill="#666666">[bigint]</text>
<polygon fill="none" stroke="#000000" points="245,-502.5 245,-532.5 551,-532.5 551,-502.5 245,-502.5"/>
<text text-anchor="start" x="252" y="-513.9" font-family="Arial" font-size="14.00" fill="#000000">castle_id </text>
<text text-anchor="start" x="311.1248" y="-513.9" font-family="Arial" font-size="14.00" fill="#666666">[bigint]</text>
<polygon fill="none" stroke="#000000" points="245,-472.5 245,-502.5 551,-502.5 551,-472.5 245,-472.5"/>
<text text-anchor="start" x="252" y="-483.9" font-family="Arial" font-size="14.00" fill="#000000">author_id </text>
<text text-anchor="start" x="314.244" y="-483.9" font-family="Arial" font-size="14.00" fill="#666666">[bigint]</text>
<polygon fill="none" stroke="#000000" points="245,-442.5 245,-472.5 551,-472.5 551,-442.5 245,-442.5"/>
<text text-anchor="start" x="252" y="-453.9" font-family="Arial" font-size="14.00" fill="#000000">reconstruction_year </text>
<text text-anchor="start" x="378.8036" y="-453.9" font-family="Arial" font-size="14.00" fill="#666666">[integer]</text>
<polygon fill="none" stroke="#000000" stroke-width="3" points="243.5,-441.5 243.5,-599.5 552.5,-599.5 552.5,-441.5 243.5,-441.5"/>
</g>
<!-- public.castle -->
<g id="node2" class="node">
<title>public.castle</title>
<polygon fill="#efefef" stroke="transparent" points="105,-282.5 105,-317.5 345,-317.5 345,-282.5 105,-282.5"/>
<polygon fill="none" stroke="#000000" points="105,-282.5 105,-317.5 345,-317.5 345,-282.5 105,-282.5"/>
<text text-anchor="start" x="111.707" y="-295.3" font-family="Arial Bold" font-size="18.00" fill="#000000">public.castle</text>
<text text-anchor="start" x="210.725" y="-295.3" font-family="Arial" font-size="14.00" fill="#000000">    </text>
<text text-anchor="start" x="244.9298" y="-295.3" font-family="Arial" font-size="14.00" fill="#666666">[BASE TABLE]</text>
<polygon fill="none" stroke="#000000" points="105,-252.5 105,-282.5 345,-282.5 345,-252.5 105,-252.5"/>
<text text-anchor="start" x="112" y="-263.9" font-family="Arial" font-size="14.00" fill="#000000">id    </text>
<text text-anchor="start" x="157.094" y="-263.9" font-family="Arial" font-size="14.00" fill="#666666">[bigint]</text>
<polygon fill="none" stroke="#000000" points="105,-222.5 105,-252.5 345,-252.5 345,-222.5 105,-222.5"/>
<text text-anchor="start" x="112" y="-233.9" font-family="Arial" font-size="14.00" fill="#000000">name    </text>
<text text-anchor="start" x="181.2132" y="-233.9" font-family="Arial" font-size="14.00" fill="#666666">[text]</text>
<polygon fill="none" stroke="#000000" points="105,-192.5 105,-222.5 345,-222.5 345,-192.5 105,-192.5"/>
<text text-anchor="start" x="112" y="-203.9" font-family="Arial" font-size="14.00" fill="#000000">description    </text>
<text text-anchor="start" x="213.8822" y="-203.9" font-family="Arial" font-size="14.00" fill="#666666">[text]</text>
<polygon fill="none" stroke="#000000" points="105,-162.5 105,-192.5 345,-192.5 345,-162.5 105,-162.5"/>
<text text-anchor="start" x="112" y="-173.9" font-family="Arial" font-size="14.00" fill="#000000">author_id    </text>
<text text-anchor="start" x="204.5582" y="-173.9" font-family="Arial" font-size="14.00" fill="#666666">[bigint]</text>
<polygon fill="none" stroke="#000000" points="105,-132.5 105,-162.5 345,-162.5 345,-132.5 105,-132.5"/>
<text text-anchor="start" x="112" y="-143.9" font-family="Arial" font-size="14.00" fill="#000000">built_year    </text>
<text text-anchor="start" x="206.8822" y="-143.9" font-family="Arial" font-size="14.00" fill="#666666">[integer]</text>
<polygon fill="none" stroke="#000000" points="105,-102.5 105,-132.5 345,-132.5 345,-102.5 105,-102.5"/>
<text text-anchor="start" x="112" y="-113.9" font-family="Arial" font-size="14.00" fill="#000000">destroyed_year    </text>
<text text-anchor="start" x="242.6774" y="-113.9" font-family="Arial" font-size="14.00" fill="#666666">[integer]</text>
<polygon fill="none" stroke="#000000" points="105,-72.5 105,-102.5 345,-102.5 345,-72.5 105,-72.5"/>
<text text-anchor="start" x="112" y="-83.9" font-family="Arial" font-size="14.00" fill="#000000">height_m    </text>
<text text-anchor="start" x="203.7756" y="-83.9" font-family="Arial" font-size="14.00" fill="#666666">[numeric]</text>
<polygon fill="none" stroke="#000000" points="105,-42.5 105,-72.5 345,-72.5 345,-42.5 105,-42.5"/>
<text text-anchor="start" x="112" y="-53.9" font-family="Arial" font-size="14.00" fill="#000000">material_id    </text>
<text text-anchor="start" x="214.6494" y="-53.9" font-family="Arial" font-size="14.00" fill="#666666">[bigint]</text>
</g>
<!-- public.reconstruction&#45;&gt;public.castle -->
<g id="edge1" class="edge">
<title>public.reconstruction:castle_id&#45;&gt;public.castle:id</title>
<path fill="none" stroke="#000000" d="M234.8113,-516.4007C194.6848,-506.8788 216.3701,-437.7353 245,-397 272.1617,-358.3535 317.8383,-399.6465 345,-361 368.895,-327.0016 386.5556,-267.5 345,-267.5"/>
<polygon fill="#000000" stroke="#000000" points="235.0577,-516.4272 244.5173,-521.974 240.0288,-516.9636 245,-517.5 245,-517.5 245,-517.5 240.0288,-516.9636 245.4827,-513.026 235.0577,-516.4272 235.0577,-516.4272"/>
<text text-anchor="start" x="7.1655" y="-527.5" font-family="Arial" font-size="10.00" fill="#000000">FOREIGN KEY (castle_id) REFERENCES castle(id)</text>
</g>
<!-- public.author -->
<g id="node3" class="node">
<title>public.author</title>
<polygon fill="#efefef" stroke="transparent" points="449,-207.5 449,-242.5 693,-242.5 693,-207.5 449,-207.5"/>
<polygon fill="none" stroke="#000000" points="449,-207.5 449,-242.5 693,-242.5 693,-207.5 449,-207.5"/>
<text text-anchor="start" x="455.7018" y="-220.3" font-family="Arial Bold" font-size="18.00" fill="#000000">public.author</text>
<text text-anchor="start" x="558.7302" y="-220.3" font-family="Arial" font-size="14.00" fill="#000000">    </text>
<text text-anchor="start" x="592.935" y="-220.3" font-family="Arial" font-size="14.00" fill="#666666">[BASE TABLE]</text>
<polygon fill="none" stroke="#000000" points="449,-177.5 449,-207.5 693,-207.5 693,-177.5 449,-177.5"/>
<text text-anchor="start" x="456" y="-188.9" font-family="Arial" font-size="14.00" fill="#000000">id    </text>
<text text-anchor="start" x="501.094" y="-188.9" font-family="Arial" font-size="14.00" fill="#666666">[bigint]</text>
<polygon fill="none" stroke="#000000" points="449,-147.5 449,-177.5 693,-177.5 693,-147.5 449,-147.5"/>
<text text-anchor="start" x="456" y="-158.9" font-family="Arial" font-size="14.00" fill="#000000">name    </text>
<text text-anchor="start" x="525.2132" y="-158.9" font-family="Arial" font-size="14.00" fill="#666666">[text]</text>
<polygon fill="none" stroke="#000000" points="449,-117.5 449,-147.5 693,-147.5 693,-117.5 449,-117.5"/>
<text text-anchor="start" x="456" y="-128.9" font-family="Arial" font-size="14.00" fill="#000000">author_type_id    </text>
<text text-anchor="start" x="582.7966" y="-128.9" font-family="Arial" font-size="14.00" fill="#666666">[bigint]</text>
</g>
<!-- public.reconstruction&#45;&gt;public.author -->
<g id="edge2" class="edge">
<title>public.reconstruction:author_id&#45;&gt;public.author:id</title>
<path fill="none" stroke="#000000" d="M560.9717,-486.0469C586.3238,-477.2922 564.1782,-430.8173 551,-397 526.6731,-334.5733 473.3269,-348.4267 449,-286 433.9115,-247.2805 407.4444,-192.5 449,-192.5"/>
<polygon fill="#000000" stroke="#000000" points="560.8955,-486.0579 550.3511,-483.047 555.9477,-486.7789 551,-487.5 551,-487.5 551,-487.5 555.9477,-486.7789 551.6489,-491.953 560.8955,-486.0579 560.8955,-486.0579"/>
<text text-anchor="start" x="557.9375" y="-497.5" font-family="Arial" font-size="10.00" fill="#000000">FOREIGN KEY (author_id) REFERENCES author(id)</text>
</g>
</g>
</svg>
