<?xml version="1.0" encoding="UTF-8" standalone="no"?>
<!DOCTYPE svg PUBLIC "-//W3C//DTD SVG 1.1//EN"
 "http://www.w3.org/Graphics/SVG/1.1/DTD/svg11.dtd">
<!-- Generated by graphviz version 2.40.1 (20161225.0304)
 -->
<!-- Title: testdb Pages: 1 -->
<svg width="891pt" height="1140pt"
 viewBox="0.00 0.00 891.00 1140.00" xmlns="http://www.w3.org/2000/svg" xmlns:xlink="http://www.w3.org/1999/xlink">
<g id="graph0" class="graph" transform="scale(1 1) rotate(0) translate(4 1136)">
<title>testdb</title>
<polygon fill="#ffffff" stroke="transparent" points="-4,4 -4,-1136 887,-1136 887,4 -4,4"/>
<!-- public.author_type -->
<g id="node1" class="node">
<title>public.author_type</title>
<polygon fill="#efefef" stroke="transparent" points="164,-132.5 164,-167.5 452,-167.5 452,-132.5 164,-132.5"/>
<polygon fill="none" stroke="#000000" points="164,-132.5 164,-167.5 452,-167.5 452,-132.5 164,-132.5"/>
<text text-anchor="start" x="170.6914" y="-145.3" font-family="Arial Bold" font-size="18.00" fill="#000000">public.author_type</text>
<text text-anchor="start" x="317.7406" y="-145.3" font-family="Arial" font-size="14.00" fill="#000000">    </text>
<text text-anchor="start" x="351.9454" y="-145.3" font-family="Arial" font-size="14.00" fill="#666666">[BASE TABLE]</text>
<polygon fill="none" stroke="#000000" points="164,-102.5 164,-132.5 452,-132.5 452,-102.5 164,-102.5"/>
<text text-anchor="start" x="171" y="-113.9" font-family="Arial" font-size="14.00" fill="#000000">id    </text>
<text text-anchor="start" x="216.094" y="-113.9" font-family="Arial" font-size="14.00" fill="#666666">[bigint]</text>
<polygon fill="none" stroke="#000000" points="164,-72.5 164,-102.5 452,-102.5 452,-72.5 164,-72.5"/>
<text text-anchor="start" x="171" y="-83.9" font-family="Arial" font-size="14.00" fill="#000000">name    </text>
<text text-anchor="start" x="240.2132" y="-83.9" font-family="Arial" font-size="14.00" fill="#666666">[text]</text>
<polygon fill="none" stroke="#000000" points="164,-42.5 164,-72.5 452,-72.5 452,-42.5 164,-42.5"/>
<text text-anchor="start" x="171" y="-53.9" font-family="Arial" font-size="14.00" fill="#000000">description    </text>
<text text-anchor="start" x="272.8822" y="-53.9" font-family="Arial" font-size="14.00" fill="#666666">[text]</text>
</g>
<!-- public.author -->
<g id="node2" class="node">
<title>public.author</title>
<polygon fill="#efefef" stroke="transparent" points="186,-379.5 186,-414.5 430,-414.5 430,-379.5 186,-379.5"/>
<polygon fill="none" stroke="#000000" points="186,-379.5 186,-414.5 430,-414.5 430,-379.5 186,-379.5"/>
<text text-anchor="start" x="192.7018" y="-392.3" font-family="Arial Bold" font-size="18.00" fill="#000000">public.author</text>
<text text-anchor="start" x="295.7302" y="-392.3" font-family="Arial" font-size="14.00" fill="#000000">    </text>
<text text-anchor="start" x="329.935" y="-392.3" font-family="Arial" font-size="14.00" fill="#666666">[BASE TABLE]</text>
<polygon fill="none" stroke="#000000" points="186,-349.5 186,-379.5 430,-379.5 430,-349.5 186,-349.5"/>
<text text-anchor="start" x="193" y="-360.9" font-family="Arial" font-size="14.00" fill="#000000">id    </text>
<text text-anchor="start" x="238.094" y="-360.9" font-family="Arial" font-size="14.00" fill="#666666">[bigint]</text>
<polygon fill="none" stroke="#000000" points="186,-319.5 186,-349.5 430,-349.5 430,-319.5 186,-319.5"/>
<text text-anchor="start" x="193" y="-330.9" font-family="Arial" font-size="14.00" fill="#000000">name    </text>
<text text-anchor="start" x="262.2132" y="-330.9" font-family="Arial" font-size="14.00" fill="#666666">[text]</text>
<polygon fill="none" stroke="#000000" points="186,-289.5 186,-319.5 430,-319.5 430,-289.5 186,-289.5"/>
<text text-anchor="start" x="193" y="-300.9" font-family="Arial" font-size="14.00" fill="#000000">author_type_id    </text>
<text text-anchor="start" x="319.7966" y="-300.9" font-family="Arial" font-size="14.00" fill="#666666">[bigint]</text>
</g>
<!-- public.author&#45;&gt;public.author_type -->
<g id="edge1" class="edge">
<title>public.author:author_type_id&#45;&gt;public.author_type:id</title>
<path fill="none" stroke="#000000" d="M308.803,-279.3681C318.6658,-222.0952 416.6735,-270.4924 452,-211 473.217,-175.269 493.5556,-117.5 452,-117.5"/>
<polygon fill="#000000" stroke="#000000" points="308.7902,-279.5313 303.5141,-289.1444 308.3951,-284.5156 308,-289.5 308,-289.5 308,-289.5 308.3951,-284.5156 312.4859,-289.8556 308.7902,-279.5313 308.7902,-279.5313"/>
<text text-anchor="start" x="16.4815" y="-299.5" font-family="Arial" font-size="10.00" fill="#000000">FOREIGN KEY (author_type_id) REFERENCES author_type(id)</text>
</g>
<!-- public.material -->
<g id="node3" class="node">
<title>public.material</title>
<polygon fill="#efefef" stroke="transparent" points="535,-364.5 535,-399.5 792,-399.5 792,-364.5 535,-364.5"/>
<polygon fill="none" stroke="#000000" points="535,-364.5 535,-399.5 792,-399.5 792,-364.5 535,-364.5"/>
<text text-anchor="start" x="541.7146" y="-377.3" font-family="Arial Bold" font-size="18.00" fill="#000000">public.material</text>
<text text-anchor="start" x="657.7174" y="-377.3" font-family="Arial" font-size="14.00" fill="#000000">    </text>
<text text-anchor="start" x="691.9222" y="-377.3" font-family="Arial" font-size="14.00" fill="#666666">[BASE TABLE]</text>
<polygon fill="none" stroke="#000000" points="535,-334.5 535,-364.5 792,-364.5 792,-334.5 535,-334.5"/>
<text text-anchor="start" x="542" y="-345.9" font-family="Arial" font-size="14.00" fill="#000000">id    </text>
<text text-anchor="start" x="587.094" y="-345.9" font-family="Arial" font-size="14.00" fill="#666666">[bigint]</text>
<polygon fill="none" stroke="#000000" points="535,-304.5 535,-334.5 792,-334.5 792,-304.5 535,-304.5"/>
<text text-anchor="start" x="542" y="-315.9" font-family="Arial" font-size="14.00" fill="#000000">name    </text>
<text text-anchor="start" x="611.2132" y="-315.9" font-family="Arial" font-size="14.00" fill="#666666">[text]</text>
</g>
<!-- public.castle -->
<g id="node4" class="node">
<title>public.castle</title>
<polygon fill="#efefef" stroke="transparent" points="379,-776.5 379,-811.5 619,-811.5 619,-776.5 379,-776.5"/>
<polygon fill="none" stroke="#000000" points="379,-776.5 379,-811.5 619,-811.5 619,-776.5 379,-776.5"/>
<text text-anchor="start" x="385.707" y="-789.3" font-family="Arial Bold" font-size="18.00" fill="#000000">public.castle</text>
<text text-anchor="start" x="484.725" y="-789.3" font-family="Arial" font-size="14.00" fill="#000000">    </text>
<text text-anchor="start" x="518.9298" y="-789.3" font-family="Arial" font-size="14.00" fill="#666666">[BASE TABLE]</text>
<polygon fill="none" stroke="#000000" points="379,-746.5 379,-776.5 619,-776.5 619,-746.5 379,-746.5"/>
<text text-anchor="start" x="386" y="-757.9" font-family="Arial" font-size="14.00" fill="#000000">id    </text>
<text text-anchor="start" x="431.094" y="-757.9" font-family="Arial" font-size="14.00" fill="#666666">[bigint]</text>
<polygon fill="none" stroke="#000000" points="379,-716.5 379,-746.5 619,-746.5 619,-716.5 379,-716.5"/>
<text text-anchor="start" x="386" y="-727.9" font-family="Arial" font-size="14.00" fill="#000000">name    </text>
<text text-anchor="start" x="455.2132" y="-727.9" font-family="Arial" font-size="14.00" fill="#666666">[text]</text>
<polygon fill="none" stroke="#000000" points="379,-686.5 379,-716.5 619,-716.5 619,-686.5 379,-686.5"/>
<text text-anchor="start" x="386" y="-697.9" font-family="Arial" font-size="14.00" fill="#000000">description    </text>
<text text-anchor="start" x="487.8822" y="-697.9" font-family="Arial" font-size="14.00" fill="#666666">[text]</text>
<polygon fill="none" stroke="#000000" points="379,-656.5 379,-686.5 619,-686.5 619,-656.5 379,-656.5"/>
<text text-anchor="start" x="386" y="-667.9" font-family="Arial" font-size="14.00" fill="#000000">author_id    </text>
<text text-anchor="start" x="478.5582" y="-667.9" font-family="Arial" font-size="14.00" fill="#666666">[bigint]</text>
<polygon fill="none" stroke="#000000" points="379,-626.5 379,-656.5 619,-656.5 619,-626.5 379,-626.5"/>
<text text-anchor="start" x="386" y="-637.9" font-family="Arial" font-size="14.00" fill="#000000">built_year    </text>
<text text-anchor="start" x="480.8822" y="-637.9" font-family="Arial" font-size="14.00" fill="#666666">[integer]</text>
<polygon fill="none" stroke="#000000" points="379,-596.5 379,-626.5 619,-626.5 619,-596.5 379,-596.5"/>
<text text-anchor="start" x="386" y="-607.9" font-family="Arial" font-size="14.00" fill="#000000">destroyed_year    </text>
<text text-anchor="start" x="516.6774" y="-607.9" font-family="Arial" font-size="14.00" fill="#666666">[integer]</text>
<polygon fill="none" stroke="#000000" points="379,-566.5 379,-596.5 619,-596.5 619,-566.5 379,-566.5"/>
<text text-anchor="start" x="386" y="-577.9" font-family="Arial" font-size="14.00" fill="#000000">height_m    </text>
<text text-anchor="start" x="477.7756" y="-577.9" font-family="Arial" font-size="14.00" fill="#666666">[numeric]</text>
<polygon fill="none" stroke="#000000" points="379,-536.5 379,-566.5 619,-566.5 619,-536.5 379,-536.5"/>
<text text-anchor="start" x="386" y="-547.9" font-family="Arial" font-size="14.00" fill="#000000">material_id    </text>
<text text-anchor="start" x="488.6494" y="-547.9" font-family="Arial" font-size="14.00" fill="#666666">[bigint]</text>
</g>
<!-- public.castle&#45;&gt;public.author -->
<g id="edge2" class="edge">
<title>public.castle:author_id&#45;&gt;public.author:id</title>
<path fill="none" stroke="#000000" d="M368.6939,-670.8066C304.0905,-661.5082 344.4074,-560.761 379,-494 391.7644,-469.3657 417.2356,-482.6343 430,-458 449.1182,-421.1034 471.5556,-364.5 430,-364.5"/>
<polygon fill="#000000" stroke="#000000" points="369.0226,-670.8286 378.6979,-675.9898 374.0113,-671.1643 379,-671.5 379,-671.5 379,-671.5 374.0113,-671.1643 379.3021,-667.0102 369.0226,-670.8286 369.0226,-670.8286"/>
<text text-anchor="start" x="135.9375" y="-681.5" font-family="Arial" font-size="10.00" fill="#000000">FOREIGN KEY (author_id) REFERENCES author(id)</text>
</g>
<!-- public.castle&#45;&gt;public.material -->
<g id="edge3" class="edge">
<title>public.castle:material_id&#45;&gt;public.material:id</title>
<path fill="none" stroke="#000000" d="M628.9565,-548.6226C640.0935,-539.7729 629.3788,-512.4434 619,-494 597.5807,-455.9373 556.4193,-481.0627 535,-443 514.6204,-406.7849 493.4444,-349.5 535,-349.5"/>
<polygon fill="#000000" stroke="#000000" points="628.6069,-548.7236 617.7506,-547.1769 623.8034,-550.1118 619,-551.5 619,-551.5 619,-551.5 623.8034,-550.1118 620.2494,-555.8231 628.6069,-548.7236 628.6069,-548.7236"/>
<text text-anchor="start" x="625.7295" y="-561.5" font-family="Arial" font-size="10.00" fill="#000000">FOREIGN KEY (material_id) REFERENCES material(id)</text>
</g>
<!-- public.reconstruction -->
<g id="node5" class="node">
<title>public.reconstruction</title>
<polygon fill="#efefef" stroke="transparent" points="250,-1053.5 250,-1088.5 556,-1088.5 556,-1053.5 250,-1053.5"/>
<polygon fill="none" stroke="#000000" points="250,-1053.5 250,-1088.5 556,-1088.5 556,-1053.5 250,-1053.5"/>
<text text-anchor="start" x="256.7013" y="-1066.3" font-family="Arial Bold" font-size="18.00" fill="#000000">public.reconstruction</text>
<text text-anchor="start" x="421.7307" y="-1066.3" font-family="Arial" font-size="14.00" fill="#000000">    </text>
<text text-anchor="start" x="455.9355" y="-1066.3" font-family="Arial" font-size="14.00" fill="#666666">[BASE TABLE]</text>
<polygon fill="none" stroke="#000000" points="250,-1023.5 250,-1053.5 556,-1053.5 556,-1023.5 250,-1023.5"/>
<text text-anchor="start" x="257" y="-1034.9" font-family="Arial" font-size="14.00" fill="#000000">id    </text>
<text text-anchor="start" x="302.094" y="-1034.9" font-family="Arial" font-size="14.00" fill="#666666">[bigint]</text>
<polygon fill="none" stroke="#000000" points="250,-993.5 250,-1023.5 556,-1023.5 556,-993.5 250,-993.5"/>
<text text-anchor="start" x="257" y="-1004.9" font-family="Arial" font-size="14.00" fill="#000000">castle_id    </text>
<text text-anchor="start" x="346.439" y="-1004.9" font-family="Arial" font-size="14.00" fill="#666666">[bigint]</text>
<polygon fill="none" stroke="#000000" points="250,-963.5 250,-993.5 556,-993.5 556,-963.5 250,-963.5"/>
<text text-anchor="start" x="257" y="-974.9" font-family="Arial" font-size="14.00" fill="#000000">author_id    </text>
<text text-anchor="start" x="349.5582" y="-974.9" font-family="Arial" font-size="14.00" fill="#666666">[bigint]</text>
<polygon fill="none" stroke="#000000" points="250,-933.5 250,-963.5 556,-963.5 556,-933.5 250,-933.5"/>
<text text-anchor="start" x="257" y="-944.9" font-family="Arial" font-size="14.00" fill="#000000">reconstruction_year    </text>
<text text-anchor="start" x="414.1178" y="-944.9" font-family="Arial" font-size="14.00" fill="#666666">[integer]</text>
</g>
<!-- public.reconstruction&#45;&gt;public.author -->
<g id="edge4" class="edge">
<title>public.reconstruction:author_id&#45;&gt;public.author:id</title>
<path fill="none" stroke="#000000" d="M239.9518,-978.1438C150.167,-971.8782 -7.092,-880.2906 327,-494 358.7222,-457.3215 401.9312,-497.5443 430,-458 454.0531,-424.1132 471.5556,-364.5 430,-364.5"/>
<polygon fill="#000000" stroke="#000000" points="240.0063,-978.1456 249.8405,-982.9972 245.0031,-978.3228 250,-978.5 250,-978.5 250,-978.5 245.0031,-978.3228 250.1595,-974.0028 240.0063,-978.1456 240.0063,-978.1456"/>
<text text-anchor="start" x="6.9375" y="-988.5" font-family="Arial" font-size="10.00" fill="#000000">FOREIGN KEY (author_id) REFERENCES author(id)</text>
</g>
<!-- public.reconstruction&#45;&gt;public.castle -->
<g id="edge5" class="edge">
<title>public.reconstruction:castle_id&#45;&gt;public.castle:id</title>
<path fill="none" stroke="#000000" d="M565.9766,-1007.3966C605.4565,-997.8444 586.7192,-928.5961 556,-891 505.2063,-828.8354 429.7937,-917.1646 379,-855 352.7066,-822.8205 337.4444,-761.5 379,-761.5"/>
<polygon fill="#000000" stroke="#000000" points="565.9394,-1007.4006 555.5053,-1004.0273 560.9697,-1007.9503 556,-1008.5 556,-1008.5 556,-1008.5 560.9697,-1007.9503 556.4947,-1012.9727 565.9394,-1007.4006 565.9394,-1007.4006"/>
<text text-anchor="start" x="563.1655" y="-1018.5" font-family="Arial" font-size="10.00" fill="#000000">FOREIGN KEY (castle_id) REFERENCES castle(id)</text>
</g>
</g>
</svg>
